<?xml version="1.0" encoding="utf-8"?>
<!-- Generator: Adobe Illustrator 21.0.2, SVG Export Plug-In . SVG Version: 6.00 Build 0)  -->
<svg version="1.1" id="Layer_1" xmlns="http://www.w3.org/2000/svg" xmlns:xlink="http://www.w3.org/1999/xlink" x="0px" y="0px"
	 viewBox="0 0 50 50" style="enable-background:new 0 0 50 50;" xml:space="preserve">
<style type="text/css">
	.st0{fill:#FFFFFF;}
</style>
<g>
	<g>
		<path class="st0" d="M8.1,20.3c-0.1,0-0.2,0-0.2,0c-0.4-0.2-0.8-0.4-1.2-0.8c-0.6-0.6-1-1.5-1-2.4c0-0.9,0.4-1.7,1-2.4L16.4,5
			c0.6-0.6,1.5-1,2.4-1c0.9,0,1.7,0.4,2.4,1c0.6,0.6,1,1.5,1,2.4c0,0.9-0.4,1.7-1,2.4l-9,9c-0.3,0.3-0.7,0.3-1,0
			c-0.3-0.3-0.3-0.7,0-1l9-9c0.4-0.4,0.6-0.9,0.6-1.4c0-0.5-0.2-1-0.6-1.4c-0.8-0.8-2.1-0.8-2.9,0l-9.7,9.7
			c-0.4,0.4-0.6,0.9-0.6,1.4c0,0.5,0.2,1,0.6,1.4c0.2,0.2,0.4,0.4,0.7,0.5c0.3,0.1,0.5,0.5,0.4,0.9C8.6,20.1,8.4,20.3,8.1,20.3z"/>
		<path class="st0" d="M13.4,30.5c-0.3,0-0.6-0.1-0.9-0.2c-0.6-0.3-1.1-0.7-1.4-1.3l0,0L6.7,18.3c-0.3-0.6-0.3-1.3,0-1.9
			c0.2-0.6,0.7-1.1,1.3-1.4c0.6-0.3,1.3-0.3,1.9,0c0.6,0.2,1.1,0.7,1.4,1.3l4.5,10.7c0.3,0.6,0.3,1.3,0,1.9
			c-0.3,0.6-0.7,1.1-1.3,1.4C14.1,30.5,13.8,30.5,13.4,30.5z M12.4,28.5c0.1,0.3,0.3,0.5,0.6,0.6c0.3,0.1,0.6,0.1,0.9,0
			c0.3-0.1,0.5-0.3,0.6-0.6c0.1-0.3,0.1-0.6,0-0.9L10,16.9c-0.1-0.3-0.3-0.5-0.6-0.6c-0.3-0.1-0.6-0.1-0.9,0
			c-0.3,0.1-0.5,0.3-0.6,0.6c-0.1,0.3-0.1,0.6,0,0.9L12.4,28.5z"/>
		<path class="st0" d="M21,38.8c-0.2,0-0.3-0.1-0.5-0.2l-4.7-4.7c-0.1-0.1-0.2-0.3-0.2-0.5c0-0.2,0.1-0.4,0.3-0.5l5.1-3.7
			c0.3-0.2,0.6-0.2,0.9,0.1l1.9,1.9c0.3,0.3,0.3,0.7,0,1c-0.3,0.3-0.7,0.3-1,0l-1.4-1.4l-4,2.9l3.7,3.7l1.1-1.1c0.3-0.3,0.7-0.3,1,0
			c0.3,0.3,0.3,0.7,0,1l-1.5,1.5C21.3,38.7,21.1,38.8,21,38.8z"/>
		<ellipse transform="matrix(0.3766 -0.9264 0.9264 0.3766 -21.1479 35.2328)" class="st0" cx="15.6" cy="33.3" rx="1.5" ry="1.5"/>
		<path class="st0" d="M15.6,34c-0.3,0-0.6-0.2-0.6-0.5l-1.1-3.6c-0.1-0.4,0.1-0.7,0.4-0.8c0.4-0.1,0.7,0.1,0.8,0.4l1.1,3.6
			c0.1,0.4-0.1,0.7-0.4,0.8C15.7,34,15.7,34,15.6,34z"/>
		<circle class="st0" cx="9" cy="17.6" r="0.7"/>
		<path class="st0" d="M43.6,46H18.1c-0.4,0-0.7-0.3-0.7-0.7v-7.2c0-0.4,0.3-0.7,0.7-0.7s0.7,0.3,0.7,0.7v6.5h24.1V23H18.8v5.8
			c0,0.4-0.3,0.7-0.7,0.7s-0.7-0.3-0.7-0.7v-6.5c0-0.4,0.3-0.7,0.7-0.7h25.5c0.4,0,0.7,0.3,0.7,0.7v23C44.3,45.7,44,46,43.6,46z"/>
	</g>
	<rect x="21.2" y="25.6" class="st0" width="14.2" height="3.4"/>
	<rect x="21.2" y="32.4" class="st0" width="10.2" height="3.4"/>
</g>
</svg>
