<?xml version="1.0" encoding="utf-8"?>
<!-- Generator: Adobe Illustrator 21.0.2, SVG Export Plug-In . SVG Version: 6.00 Build 0)  -->
<svg version="1.1" id="Layer_1" xmlns="http://www.w3.org/2000/svg" xmlns:xlink="http://www.w3.org/1999/xlink" x="0px" y="0px"
	 viewBox="0 0 50 50" style="enable-background:new 0 0 50 50;" xml:space="preserve">
<style type="text/css">
	.st0{fill:#FFFFFF;}
</style>
<path class="st0" d="M13.5,20.7c-0.4-1.3-0.7-2.6-0.7-4c0-6.6,5.3-11.9,11.9-11.9s11.9,5.3,11.9,11.9c0,1.1-0.2,2.3-0.5,3.4
	l-1.3-0.4c0.3-1,0.4-2,0.4-3c0-5.8-4.7-10.6-10.5-10.6c-5.8,0-10.6,4.7-10.6,10.6c0,1.2,0.2,2.4,0.6,3.5L13.5,20.7z"/>
<path class="st0" d="M24.7,44.8c-0.1,0-0.1,0-0.2,0L9.4,40.3c-0.3-0.1-0.5-0.4-0.5-0.7V18.9c0-0.2,0.1-0.4,0.3-0.6
	c0.2-0.1,0.4-0.2,0.6-0.1l14.9,5l14.9-5.6c0.2-0.1,0.4,0,0.6,0.1c0.2,0.1,0.3,0.3,0.3,0.6v19.5c0,0.3-0.2,0.5-0.4,0.6L25,44.7
	C24.9,44.7,24.8,44.8,24.7,44.8z M10.3,39.1l14.4,4.2l14.5-6V19.3l-14.2,5.3c-0.1,0.1-0.3,0.1-0.5,0l-14.2-4.7V39.1z"/>
<circle class="st0" cx="19.7" cy="15.7" r="1.9"/>
<circle class="st0" cx="29.7" cy="15.7" r="1.9"/>
<polygon class="st0" points="37.3,25.8 27.8,29.6 27.8,27.1 37.3,23.3 "/>
</svg>
