<?xml version="1.0" encoding="utf-8"?>
<!-- Generator: Adobe Illustrator 21.0.2, SVG Export Plug-In . SVG Version: 6.00 Build 0)  -->
<svg version="1.1" id="Layer_1" xmlns="http://www.w3.org/2000/svg" xmlns:xlink="http://www.w3.org/1999/xlink" x="0px" y="0px"
	 viewBox="0 0 50 50" style="enable-background:new 0 0 50 50;" xml:space="preserve">
<style type="text/css">
	.st0{fill:#FFFFFF;}
</style>
<g>
	<path class="st0" d="M8.9,38.6c-2.8,0.6-5.3-1.9-4.8-4.8c0.4-1.5,1.6-2.8,3.2-3.2c2.8-0.6,5.3,1.9,4.8,4.8
		C11.8,36.9,10.5,38.2,8.9,38.6z M8.1,32.6c-1.1,0-2,0.9-2,2c0,1.1,0.9,2,2,2s2-0.9,2-2C10.1,33.5,9.2,32.6,8.1,32.6z"/>
	<path class="st0" d="M20.3,26.5c-2.8,0.6-5.3-1.9-4.8-4.8c0.4-1.5,1.6-2.8,3.2-3.2c2.8-0.6,5.3,1.9,4.8,4.8
		C23.2,24.9,22,26.2,20.3,26.5z M19.6,20.5c-1.1,0-2,0.9-2,2c0,1.1,0.9,2,2,2c1.1,0,2-0.9,2-2C21.6,21.5,20.7,20.5,19.6,20.5z"/>
	<path class="st0" d="M31.8,35.5c-2.8,0.6-5.3-1.9-4.8-4.8c0.4-1.5,1.6-2.8,3.2-3.2c2.8-0.6,5.3,1.9,4.8,4.8
		C34.7,34,33.4,35.3,31.8,35.5z M31,29.6c-1.1,0-2,0.9-2,2s0.9,2,2,2s2-0.9,2-2S32.1,29.6,31,29.6z"/>
	<path class="st0" d="M42.7,20.5c-2.8,0.6-5.3-1.9-4.8-4.8c0.4-1.5,1.6-2.8,3.2-3.2c2.8-0.6,5.3,1.9,4.8,4.8
		C45.5,18.9,44.2,20.2,42.7,20.5z M41.9,14.6c-1.1,0-2,0.9-2,2s0.9,2,2,2s2-0.9,2-2S43,14.6,41.9,14.6z"/>
	<rect x="8.4" y="27.4" transform="matrix(0.7071 -0.7071 0.7071 0.7071 -16.0987 18.0113)" class="st0" width="10.7" height="2"/>
	<rect x="24.6" y="22.6" transform="matrix(0.7071 -0.7071 0.7071 0.7071 -11.4986 25.9423)" class="st0" width="2" height="8.6"/>
	<rect x="30.1" y="23.1" transform="matrix(0.5767 -0.8169 0.8169 0.5767 -4.2536 39.9029)" class="st0" width="12.5" height="2"/>
</g>
</svg>
