<?xml version="1.0" encoding="utf-8"?>
<!-- Generator: Adobe Illustrator 21.0.2, SVG Export Plug-In . SVG Version: 6.00 Build 0)  -->
<svg version="1.1" id="Layer_1" xmlns="http://www.w3.org/2000/svg" xmlns:xlink="http://www.w3.org/1999/xlink" x="0px" y="0px"
	 viewBox="0 0 50 50" style="enable-background:new 0 0 50 50;" xml:space="preserve">
<style type="text/css">
	.st0{fill:#FFFFFF;}
</style>
<g>
	<path class="st0" d="M12.1,26.3L10,24.3h2.2c4.5,0,9.7-5,10.2-13l1.8,0.2C23.6,20.7,17.4,26.3,12.1,26.3z M10,26.3v-1.9V26.3z"/>
	<path class="st0" d="M26.1,15.9l-3-4l-4.2,3.4L17.7,14l5-4.1c0.2-0.2,0.5-0.2,0.7-0.2c0.2,0,0.5,0.2,0.6,0.4l3.5,4.7L26.1,15.9z"/>
	<path class="st0" d="M28.4,40.3h-1.9c0-5.2-1.2-14-9.4-14h-7v-1.9h7.1C24.2,24.4,28.4,30.2,28.4,40.3z"/>
	<rect x="13" y="24.4" class="st0" width="25" height="1.9"/>
	<path class="st0" d="M34.4,30.8L33,29.5l4.1-4.1l-4.4-3.7l1.2-1.4l5.2,4.3c0.2,0.2,0.3,0.4,0.3,0.7c0,0.2-0.1,0.6-0.2,0.7
		L34.4,30.8z"/>
	<path class="st0" d="M27.5,41.7c-0.2,0-0.6-0.1-0.7-0.3l-4-4.5l1.4-1.3l3.3,3.7l3.3-3.7l1.4,1.3l-4,4.5
		C28.1,41.5,27.8,41.7,27.5,41.7z"/>
</g>
</svg>
