<?xml version="1.0" encoding="utf-8"?>
<!-- Generator: Adobe Illustrator 21.0.2, SVG Export Plug-In . SVG Version: 6.00 Build 0)  -->
<svg version="1.1" id="Layer_1" xmlns="http://www.w3.org/2000/svg" xmlns:xlink="http://www.w3.org/1999/xlink" x="0px" y="0px"
	 viewBox="0 0 50 50" style="enable-background:new 0 0 50 50;" xml:space="preserve">
<style type="text/css">
	.st0{fill:#FFFFFF;}
</style>
<g>
	<path class="st0" d="M25.1,37.9c-6.9,0-12.4-5.6-12.4-12.4S18.2,13,25.1,13s12.4,5.6,12.4,12.4S31.9,37.9,25.1,37.9z M25.1,14.3
		c-6.1,0-11.1,5-11.1,11.1c0,6.1,5,11.1,11.1,11.1s11.1-5,11.1-11.1C36.2,19.3,31.2,14.3,25.1,14.3z"/>
	<path class="st0" d="M39.4,22.1c-0.9-7.3-7-12.8-14.4-12.8c-7.2,0-13.4,5.4-14.4,12.5l-1.3-0.2C10.4,13.9,17.1,8,25,8
		c8,0,14.7,6,15.7,13.9L39.4,22.1z"/>
	<path class="st0" d="M31.7,40.9l-0.5-1.2c3.3-1.3,8.3-5.8,8.6-10.4l1.3,0.1C40.8,34.6,35.4,39.5,31.7,40.9z"/>
	<path class="st0" d="M18,25.3l-0.9-0.9l2.6-2.6c0.1-0.1,0.3-0.2,0.5-0.2l0,0c0.2,0,0.3,0.1,0.5,0.2l2.6,2.6l-0.9,0.9l-2.1-2.1
		L18,25.3z"/>
	<path class="st0" d="M32,25.3l-2.1-2.1l-2.1,2.1l-0.9-0.9l2.6-2.6c0.2-0.2,0.7-0.2,0.9,0l2.6,2.6L32,25.3z"/>
	<path class="st0" d="M41.1,30.1c-1.3,0-2.4-1.1-2.4-2.4v-4.6c0-1.3,1.1-2.4,2.4-2.4s2.4,1.1,2.4,2.4v4.6
		C43.5,29,42.4,30.1,41.1,30.1z M41.1,22c-0.6,0-1.1,0.5-1.1,1.1v4.6c0,0.6,0.5,1.1,1.1,1.1c0.6,0,1.1-0.5,1.1-1.1v-4.6
		C42.1,22.5,41.7,22,41.1,22z"/>
	<path class="st0" d="M8.9,30.1c-1.3,0-2.4-1.1-2.4-2.4v-4.6c0-1.3,1.1-2.4,2.4-2.4s2.4,1.1,2.4,2.4v4.6C11.3,29,10.2,30.1,8.9,30.1
		z M8.9,22c-0.6,0-1.1,0.5-1.1,1.1v4.6c0,0.6,0.5,1.1,1.1,1.1c0.6,0,1.1-0.5,1.1-1.1v-4.6C10,22.5,9.5,22,8.9,22z"/>
	<path class="st0" d="M29.6,44c-1.5,0-2.7-1.2-2.7-2.7c0-1.5,1.2-2.7,2.7-2.7s2.7,1.2,2.7,2.7C32.3,42.8,31.1,44,29.6,44z M29.6,40
		c-0.7,0-1.4,0.6-1.4,1.4c0,0.7,0.6,1.3,1.4,1.3s1.4-0.6,1.4-1.3C31,40.6,30.4,40,29.6,40z"/>
</g>
</svg>
