<?xml version="1.0" encoding="utf-8"?>
<!-- Generator: Adobe Illustrator 21.0.2, SVG Export Plug-In . SVG Version: 6.00 Build 0)  -->
<svg version="1.1" id="Layer_1" xmlns="http://www.w3.org/2000/svg" xmlns:xlink="http://www.w3.org/1999/xlink" x="0px" y="0px"
	 viewBox="0 0 50 50" style="enable-background:new 0 0 50 50;" xml:space="preserve">
<style type="text/css">
	.st0{fill:#FFFFFF;}
</style>
<path class="st0" d="M24.9,45H7.8c-0.4,0-0.7-0.3-0.7-0.7V14.1c0-0.4,0.3-0.7,0.7-0.7h9.7c0.4,0,0.7,0.3,0.7,0.7s-0.3,0.7-0.7,0.7
	H8.4v29h15.8V24c0-0.4,0.3-0.7,0.7-0.7s0.7,0.3,0.7,0.7v20.4C25.5,44.7,25.3,45,24.9,45z"/>
<path class="st0" d="M19.1,28.6c-0.1,0-0.3,0-0.4-0.1c-0.2-0.2-0.3-0.5-0.3-0.7l1.9-6.4h-2.1c-0.4,0-0.7-0.3-0.7-0.7V5.5
	c0-0.4,0.3-0.7,0.7-0.7h24c0.4,0,0.7,0.3,0.7,0.7v15.2c0,0.4-0.3,0.7-0.7,0.7H29l-9.5,7.1C19.4,28.5,19.2,28.6,19.1,28.6z M19,20
	h2.3c0.2,0,0.4,0.1,0.5,0.3c0.1,0.2,0.2,0.4,0.1,0.6l-1.6,5.3l8.1-6c0.1-0.1,0.3-0.1,0.4-0.1h12.8V6.2H19V20z"/>
<rect x="21.5" y="9.5" class="st0" width="13.6" height="2.4"/>
<rect x="21.5" y="13.5" class="st0" width="8" height="2.4"/>
<path class="st0" d="M22.6,39H10c-0.4,0-0.7-0.3-0.7-0.7v-21c0-0.4,0.3-0.7,0.7-0.7h8.3c0.4,0,0.7,0.3,0.7,0.7
	c0,0.4-0.3,0.7-0.7,0.7h-7.6v19.7h11.2v-12c0-0.4,0.3-0.7,0.7-0.7c0.4,0,0.7,0.3,0.7,0.7v12.7C23.3,38.7,23,39,22.6,39z"/>
<circle class="st0" cx="16.3" cy="41.5" r="1.1"/>
</svg>
