<?xml version="1.0" encoding="utf-8"?>
<!-- Generator: Adobe Illustrator 21.0.2, SVG Export Plug-In . SVG Version: 6.00 Build 0)  -->
<svg version="1.1" id="Layer_1" xmlns="http://www.w3.org/2000/svg" xmlns:xlink="http://www.w3.org/1999/xlink" x="0px" y="0px"
	 viewBox="0 0 50 50" style="enable-background:new 0 0 50 50;" xml:space="preserve">
<style type="text/css">
	.st0{fill:#FFFFFF;}
</style>
<g>
	<g>
		<path class="st0" d="M31.2,43.2H18.9c-0.4,0-0.6-0.3-0.6-0.6V20c0-0.4,0.3-0.6,0.6-0.6h12.4c0.4,0,0.6,0.3,0.6,0.6v22.6
			C31.9,42.9,31.5,43.2,31.2,43.2z M19.5,41.8h11V20.6h-11V41.8z"/>
		<path class="st0" d="M43.5,43.2H31.1c-0.4,0-0.6-0.3-0.6-0.6V26c0-0.4,0.3-0.6,0.6-0.6h12.4c0.4,0,0.6,0.3,0.6,0.6v16.6
			C44.2,42.9,43.9,43.2,43.5,43.2z M31.9,41.8h11V26.5h-11C31.9,26.5,31.9,41.8,31.9,41.8z"/>
		<path class="st0" d="M18.9,43.2H6.5c-0.4,0-0.6-0.3-0.6-0.6V29.9c0-0.4,0.3-0.6,0.6-0.6h12.4c0.4,0,0.6,0.3,0.6,0.6v12.6
			C19.5,42.9,19.3,43.2,18.9,43.2z M7.1,41.8h11V30.4h-11C7.1,30.4,7.1,41.8,7.1,41.8z"/>
	</g>
	<g>
		<path class="st0" d="M26.1,12.7h1.7v1.5h-5.4v-1.5h1.9v-4c-0.1,0.3-0.5,0.4-0.9,0.6c-0.5,0.3-0.9,0.3-1.1,0.3V8
			c0.3,0,0.5-0.1,0.8-0.3c0.4-0.1,0.6-0.4,0.9-0.5c0.3-0.3,0.4-0.4,0.5-0.4h1.8v5.9H26.1z"/>
	</g>
	<g>
		<path class="st0" d="M40.2,20.9h-5.5c0-0.8,0.1-1.3,0.4-1.7c0.3-0.4,0.8-0.9,1.4-1.3c0.1-0.1,0.3-0.1,0.5-0.3
			c0.1-0.1,0.4-0.1,0.4-0.3c0.1,0,0.3-0.1,0.4-0.3S38,17,38,16.9l0.1-0.1c0.1-0.1,0.1-0.1,0.1-0.3c0-0.1,0-0.1,0-0.3
			c0-0.3-0.1-0.4-0.3-0.6c-0.1-0.1-0.5-0.3-0.8-0.3c-0.5,0-1.1,0.3-1.5,0.9l-0.9-0.9c0.3-0.3,0.6-0.5,1.1-0.8c0.5-0.3,1-0.4,1.7-0.4
			c0.8,0,1.4,0.1,1.8,0.5c0.4,0.4,0.6,0.8,0.6,1.4c0,0.3,0,0.4-0.1,0.6c-0.1,0.1-0.1,0.4-0.3,0.5c-0.1,0.1-0.3,0.3-0.4,0.4
			c-0.1,0.1-0.3,0.3-0.4,0.3c-0.1,0.1-0.3,0.1-0.4,0.3c-0.3,0.1-0.4,0.3-0.5,0.3c-0.1,0-0.3,0.1-0.4,0.3c-0.1,0.1-0.4,0.3-0.5,0.4
			c-0.1,0.1-0.3,0.3-0.3,0.4h3.3V20.9z"/>
	</g>
	<g>
		<path class="st0" d="M12.9,21.2c0.5,0.1,0.9,0.3,1.1,0.6c0.3,0.4,0.4,0.8,0.4,1.4c0,0.8-0.3,1.3-0.8,1.7c-0.5,0.4-1.3,0.6-2.2,0.6
			c-1.1,0-2-0.4-2.7-1.1l0.9-1c0.4,0.5,1,0.8,1.7,0.8c0.5,0,0.8-0.1,1-0.3c0.3-0.1,0.4-0.5,0.4-0.9c0-0.4-0.1-0.6-0.4-0.9
			s-0.8-0.3-1.3-0.3h-0.3v-1.1h0.4c0.5,0,0.8-0.1,1-0.3c0.3-0.3,0.4-0.5,0.4-0.8s-0.1-0.5-0.3-0.6c-0.1-0.4-0.4-0.4-0.8-0.4
			s-0.6,0.1-0.9,0.3c-0.3,0.1-0.5,0.4-0.6,0.6l-0.9-1c0.3-0.4,0.6-0.6,1.1-0.9c0.5-0.3,1-0.3,1.7-0.3c0.8,0,1.4,0.1,1.9,0.5
			c0.5,0.4,0.8,0.9,0.8,1.4s-0.1,0.9-0.4,1.1C13.6,20.9,13.4,21.1,12.9,21.2z"/>
	</g>
</g>
</svg>
