<?xml version="1.0" encoding="utf-8"?>
<!-- Generator: Adobe Illustrator 21.0.2, SVG Export Plug-In . SVG Version: 6.00 Build 0)  -->
<svg version="1.1" id="Layer_1" xmlns="http://www.w3.org/2000/svg" xmlns:xlink="http://www.w3.org/1999/xlink" x="0px" y="0px"
	 viewBox="0 0 50 50" style="enable-background:new 0 0 50 50;" xml:space="preserve">
<style type="text/css">
	.st0{fill:#FFFFFF;}
</style>
<g>
	<path class="st0" d="M41.4,36.5H6.6c-0.4,0-0.8-0.4-0.8-0.8V10c0-0.4,0.4-0.8,0.8-0.8h34.8c0.4,0,0.8,0.4,0.8,0.8v25.9
		C42.2,36.3,41.9,36.5,41.4,36.5z M7.3,35.1h33.3V10.6H7.3V35.1z"/>
	<g>
		<path class="st0" d="M26.6,32.7c-1.9,0-3.9-0.8-5.3-2.2c-3-3-3-7.7,0-10.7s7.7-3,10.7,0s3,7.7,0,10.7
			C30.4,31.9,28.5,32.7,26.6,32.7z M26.6,19.1c-1.5,0-3.1,0.6-4.3,1.8c-2.3,2.3-2.3,6.2,0,8.5s6.2,2.3,8.5,0s2.3-6.2,0-8.5
			C29.6,19.6,28.1,19.1,26.6,19.1z"/>
		
			<rect x="32.5" y="29.2" transform="matrix(0.7071 -0.7071 0.7071 0.7071 -12.7539 32.8032)" class="st0" width="1.4" height="5.3"/>
		<rect x="36.9" y="30.2" transform="matrix(0.7071 -0.7071 0.7071 0.7071 -14.9074 37.96)" class="st0" width="3" height="13.5"/>
	</g>
	<rect x="34.8" y="25.4" class="st0" width="4.8" height="0.8"/>
	<path class="st0" d="M32,26.2h-1.2c-0.1,0-0.3,0-0.3-0.1l-2.8-4l-2.7,4c-0.1,0.1-0.1,0.1-0.3,0.1h-1.8c-0.1,0-0.3,0-0.3-0.1
		l-1.5-2.4l0.6-0.4l1.4,2.3h1.4l2.8-4.3c0.1-0.1,0.1-0.1,0.3-0.1s0.3,0,0.3,0.1l3,4.3h1V26.2z"/>
	<path class="st0" d="M11.9,27H9.3v-0.8h2.4l5.8-8.8c0.1-0.1,0.1-0.1,0.3-0.1l0,0c0.1,0,0.3,0.1,0.3,0.1l1.9,3.1l-0.6,0.4l-1.7-2.6
		l-5.5,8.4C12.1,26.9,12,27,11.9,27z"/>
	<g>
		<path class="st0" d="M30.6,14.2c0,0.3,0,0.4-0.1,0.6c-0.1,0.1-0.3,0.3-0.4,0.4c-0.1,0.1-0.3,0.1-0.5,0.1c-0.3,0-0.5-0.1-0.6-0.4
			c-0.1-0.3-0.3-0.5-0.3-0.8c0-0.1,0-0.3,0.1-0.5c0-0.1,0.1-0.3,0.3-0.4c0.1-0.1,0.1-0.1,0.3-0.3c0.1,0,0.3-0.1,0.4-0.1
			c0.3,0,0.5,0.1,0.6,0.4C30.4,13.6,30.6,13.8,30.6,14.2z M29.9,14.6c0.1-0.1,0.1-0.3,0.1-0.5c0-0.3,0-0.4-0.1-0.5
			c-0.1-0.1-0.3-0.3-0.4-0.3c-0.1,0-0.3,0-0.4,0.1C29,13.6,29,13.7,29,14c0,0.3,0,0.4,0.1,0.5s0.3,0.1,0.4,0.1
			C29.6,14.9,29.8,14.7,29.9,14.6z"/>
		<path class="st0" d="M31.8,14.1c0.3,0,0.5,0.1,0.6,0.3s0.3,0.4,0.3,0.6c0,0.1,0,0.4-0.1,0.5s-0.3,0.3-0.4,0.4
			C32.1,16,32,16,31.7,16c-0.3,0-0.4,0-0.5-0.1c-0.1-0.1-0.3-0.3-0.4-0.4l0.3-0.3c0.1,0.1,0.1,0.1,0.3,0.3c0.1,0,0.3,0.1,0.4,0.1
			c0.1,0,0.3,0,0.4-0.1c0.1-0.1,0.1-0.1,0.1-0.4c0-0.1,0-0.3-0.1-0.3c-0.1-0.1-0.1-0.1-0.3-0.1s-0.1,0-0.3,0s-0.1,0.1-0.1,0.1h-0.4
			l0.3-1.7h1.3v0.5h-0.9l-0.1,0.6C31.6,14.1,31.7,14.1,31.8,14.1z"/>
		<path class="st0" d="M33.5,13.8h-0.4v-0.5h0.4V13.8z M33.5,15.3h-0.4v-0.5h0.4V15.3z"/>
		<path class="st0" d="M36,14.2c0,0.3,0,0.4-0.1,0.6c-0.1,0.1-0.3,0.3-0.4,0.4c-0.1,0.1-0.3,0.1-0.5,0.1s-0.5-0.1-0.6-0.4
			c-0.1-0.3-0.3-0.5-0.3-0.8c0-0.1,0-0.3,0.1-0.5c0-0.1,0.1-0.3,0.3-0.4s0.1-0.1,0.3-0.3c0.1,0,0.3-0.1,0.4-0.1
			c0.3,0,0.5,0.1,0.6,0.4C35.8,13.6,36,13.8,36,14.2z M35.3,14.6c0.1-0.1,0.1-0.3,0.1-0.5c0-0.3,0-0.4-0.1-0.5
			c-0.1-0.1-0.3-0.3-0.4-0.3s-0.3,0-0.4,0.1c-0.1,0.1-0.1,0.3-0.1,0.5c0,0.3,0,0.4,0.1,0.5s0.3,0.1,0.4,0.1
			C35.1,14.9,35.2,14.7,35.3,14.6z"/>
		<path class="st0" d="M38.3,14.2c0,0.3,0,0.4-0.1,0.6c-0.1,0.1-0.3,0.3-0.4,0.4c-0.1,0.1-0.3,0.1-0.5,0.1s-0.5-0.1-0.6-0.4
			c-0.1-0.3-0.3-0.5-0.3-0.8c0-0.1,0-0.3,0.1-0.5c0-0.1,0.1-0.3,0.3-0.4c0.1-0.1,0.1-0.1,0.3-0.3c0.1,0,0.3-0.1,0.4-0.1
			c0.3,0,0.5,0.1,0.6,0.4C38.2,13.6,38.3,13.8,38.3,14.2z M37.6,14.6c0.1-0.1,0.1-0.3,0.1-0.5c0-0.3,0-0.4-0.1-0.5
			c-0.1-0.1-0.3-0.3-0.4-0.3s-0.3,0-0.4,0.1c-0.1,0.1-0.1,0.3-0.1,0.5c0,0.3,0,0.4,0.1,0.5c0.1,0.1,0.3,0.1,0.4,0.1
			C37.4,14.9,37.5,14.7,37.6,14.6z"/>
	</g>
</g>
</svg>
