<svg id="Layer_1" data-name="Layer 1" xmlns="http://www.w3.org/2000/svg" viewBox="0 0 233 56">
    <defs>
        <style>.cls-1{fill:#FFFFFF;}.cls-2{isolation:isolate;}</style>
    </defs>
    <title>Logo_horizontal</title>
    <path class="cls-1" d="M13,28.87l10.62-6.42V26L17.88,29.6,23.59,33v3.79L13,30.51Z"/>
    <path class="cls-1" d="M73.63,30.51,63,36.82V33l5.71-3.42L63,26V22.45l10.62,6.42Z"/>
    <path class="cls-1"
          d="M43.3,10.3A17.7,17.7,0,1,0,61,28,17.7,17.7,0,0,0,43.3,10.3ZM38.58,31l-3.11-6.42L32.26,31H29.93l4.31-8.82h2.41L40.93,31Zm15.13,0L50.6,24.54,47.39,31H45.06l4.31-8.82h2.41L56.07,31Z"/>
    <g class="cls-2">
        <path class="cls-1"
              d="M86.66,36.2H82V23.29h4.69a7.26,7.26,0,0,1,2.77.5,5.28,5.28,0,0,1,2,1.39,6.16,6.16,0,0,1,1.19,2A7.5,7.5,0,0,1,93,29.73a6.43,6.43,0,0,1-1.74,4.71A6.2,6.2,0,0,1,86.66,36.2Zm3.84-6.48a4.49,4.49,0,0,0-1-3.07,3.55,3.55,0,0,0-2.82-1.16H84.47V34h2.19a3.51,3.51,0,0,0,2.82-1.2A4.58,4.58,0,0,0,90.49,29.73Z"/>
        <path class="cls-1" d="M97.53,34H104v2.2H95V23.29h8.8v2.2h-6.3V28.6H103v2H97.53Z"/>
    </g>
    <g class="cls-2">
        <path class="cls-1" d="M104.66,23.29h2.64l3.49,9.77,3.46-9.77h2.64l-5,12.92h-2.11Z"/>
    </g>
    <g class="cls-2">
        <path class="cls-1"
              d="M126.73,24.63l-1.11,2a4.31,4.31,0,0,0-1.39-.82,5.23,5.23,0,0,0-2.09-.46,2.61,2.61,0,0,0-1.54.38,1.25,1.25,0,0,0-.52,1.08,1.51,1.51,0,0,0,0,.36.79.79,0,0,0,.15.31,2.32,2.32,0,0,0,.22.25,1.25,1.25,0,0,0,.34.21l.4.18a5.21,5.21,0,0,0,.52.18l.58.17.69.18q.83.21,1.42.42a6.88,6.88,0,0,1,1.14.52,3.31,3.31,0,0,1,.88.7,3,3,0,0,1,.52.93,3.68,3.68,0,0,1,.2,1.24,3.88,3.88,0,0,1-.38,1.76,3,3,0,0,1-1.06,1.2,5,5,0,0,1-1.51.66,7.37,7.37,0,0,1-1.83.21,9.71,9.71,0,0,1-2.87-.44A8.94,8.94,0,0,1,117,34.68l1.11-2.17a6,6,0,0,0,1.76,1,6.5,6.5,0,0,0,2.59.56,2.84,2.84,0,0,0,1.55-.34,1.1,1.1,0,0,0,.52-1,1.14,1.14,0,0,0-.15-.58,1.41,1.41,0,0,0-.43-.45,3.19,3.19,0,0,0-.66-.35q-.38-.15-.89-.3l-1.07-.3-.15,0a7.08,7.08,0,0,1-2.8-1.3,2.79,2.79,0,0,1-.86-2.2,3.81,3.81,0,0,1,.64-2.21,3.86,3.86,0,0,1,1.69-1.39,6,6,0,0,1,2.39-.45A7.91,7.91,0,0,1,126.73,24.63Z"/>
        <path class="cls-1"
              d="M134.53,34.07a3,3,0,0,0,1.5-.35,2.5,2.5,0,0,0,1-1,4.85,4.85,0,0,0,.52-1.33,7,7,0,0,0,.16-1.56V23.29h2.5v6.58a9,9,0,0,1-.33,2.5,6.33,6.33,0,0,1-1,2,4.44,4.44,0,0,1-1.77,1.39,6.12,6.12,0,0,1-2.55.5,6.34,6.34,0,0,1-2.17-.35,4.71,4.71,0,0,1-1.61-.95,5.17,5.17,0,0,1-1.08-1.42,6.58,6.58,0,0,1-.62-1.75,9.86,9.86,0,0,1-.19-2V23.29h2.51v6.58a7.13,7.13,0,0,0,.16,1.58,4.68,4.68,0,0,0,.52,1.33,2.51,2.51,0,0,0,1,1A3,3,0,0,0,134.53,34.07Z"/>
        <path class="cls-1"
              d="M145.2,36.2H142.7V23.29h5.47a3.74,3.74,0,0,1,1.64.37,4.12,4.12,0,0,1,1.31,1A4.68,4.68,0,0,1,152,26a4.16,4.16,0,0,1,.31,1.56,4.54,4.54,0,0,1-.5,2.09,4.12,4.12,0,0,1-1.44,1.59,3.72,3.72,0,0,1-2.09.62H145.2Zm0-10.71v4.18h2.91a1.42,1.42,0,0,0,1.16-.58,2.38,2.38,0,0,0,.46-1.52,2.18,2.18,0,0,0-.51-1.52,1.58,1.58,0,0,0-1.21-.56Z"/>
        <path class="cls-1"
              d="M156.49,36.2H154V23.29h5.47a3.74,3.74,0,0,1,1.64.37,4.12,4.12,0,0,1,1.31,1,4.68,4.68,0,0,1,.85,1.38,4.16,4.16,0,0,1,.31,1.56,4.54,4.54,0,0,1-.5,2.09,4.12,4.12,0,0,1-1.44,1.59,3.72,3.72,0,0,1-2.09.62h-3.06Zm0-10.71v4.18h2.91a1.42,1.42,0,0,0,1.16-.58,2.38,2.38,0,0,0,.46-1.52,2.18,2.18,0,0,0-.51-1.52,1.58,1.58,0,0,0-1.21-.56Z"/>
        <path class="cls-1"
              d="M170.65,36.29a5.7,5.7,0,0,1-2.49-.56,5.79,5.79,0,0,1-1.94-1.47,7.13,7.13,0,0,1-1.23-2.1,6.86,6.86,0,0,1,1.3-7,6.08,6.08,0,0,1,2-1.44,5.81,5.81,0,0,1,4.49-.17,5.5,5.5,0,0,1,1.7,1,7.13,7.13,0,0,1,1.27,1.48,6.76,6.76,0,0,1,.82,1.79,6.89,6.89,0,0,1,.28,1.94,6.65,6.65,0,0,1-.47,2.46,6.88,6.88,0,0,1-1.27,2.08,5.93,5.93,0,0,1-2,1.44A5.76,5.76,0,0,1,170.65,36.29Zm-3.59-6.55a5.25,5.25,0,0,0,.42,2.11,3.85,3.85,0,0,0,1.27,1.59,3.32,3.32,0,0,0,3.46.25,3.25,3.25,0,0,0,1.13-1,4.86,4.86,0,0,0,.68-1.39,5.36,5.36,0,0,0-.19-3.68A3.84,3.84,0,0,0,172.57,26a3.15,3.15,0,0,0-1.91-.61,3.19,3.19,0,0,0-1.53.37,3.32,3.32,0,0,0-1.14,1,4.86,4.86,0,0,0-.69,1.38A5.12,5.12,0,0,0,167.06,29.74Z"/>
    </g>
    <g class="cls-2">
        <path class="cls-1"
              d="M181.25,36.2h-2.51V23.29h5.71a3.74,3.74,0,0,1,2.11.63A4.38,4.38,0,0,1,188,25.53a4.34,4.34,0,0,1-.12,4.32,3.64,3.64,0,0,1-1.69,1.49l3,4.86h-2.83l-2.71-4.33h-2.48Zm0-10.71v4.18h3.15a1.44,1.44,0,0,0,1.17-.61,2.34,2.34,0,0,0,.48-1.49,2.16,2.16,0,0,0-.53-1.48,1.59,1.59,0,0,0-1.22-.6Z"/>
    </g>
    <g class="cls-2">
        <path class="cls-1" d="M200.35,23.29v2.2h-4.11V36.2h-2.51V25.49H189.6v-2.2Z"/>
    </g>
    <g class="cls-2">
        <path class="cls-1"
              d="M206.59,36.2h-2.66L209,23.29h2l5.07,12.92h-2.66L212.3,33h-4.53Zm5.26-5L210,26l-1.86,5.22Z"/>
        <path class="cls-1" d="M220,36.2h-2.51V23.3H220Z"/>
    </g>
</svg>