<svg id="Layer_1" data-name="Layer 1" xmlns="http://www.w3.org/2000/svg" viewBox="0 0 50 50">
    <defs>
        <style>.cls-1{fill:#fff;}</style>
    </defs>
    <title>Social_media_assetfb</title>
    <path class="cls-1"
          d="M25,45.5A20.5,20.5,0,1,1,45.5,25,20.52,20.52,0,0,1,25,45.5Zm0-40A19.5,19.5,0,1,0,44.5,25,19.52,19.52,0,0,0,25,5.5Z"/>
    <path class="cls-1"
          d="M20.66,22h1.86V20.14a4.83,4.83,0,0,1,.6-2.79A3.31,3.31,0,0,1,26,16a11.69,11.69,0,0,1,3.34.33l-.47,2.76a6.27,6.27,0,0,0-1.5-.22c-.72,0-1.37.26-1.37,1V22h3l-.21,2.69H26V34H22.52V24.64H20.66Z"/>
</svg>