<svg id="Layer_1" data-name="Layer 1" xmlns="http://www.w3.org/2000/svg" viewBox="0 0 50 50">
    <defs>
        <style>.cls-1{fill:#fff;}</style>
    </defs>
    <title>Social_media_assetlinkedin</title>
    <path class="cls-1"
          d="M25,45.5A20.5,20.5,0,1,1,45.5,25,20.52,20.52,0,0,1,25,45.5Zm0-40A19.5,19.5,0,1,0,44.5,25,19.52,19.52,0,0,0,25,5.5Z"/>
    <path class="cls-1"
          d="M20,32.45H16.45V21.22H20ZM18.12,19.81h0a2,2,0,1,1,.05-3.9,2,2,0,1,1,0,3.9ZM34,32.45H30V26.64c0-1.52-.62-2.56-2-2.56a2,2,0,0,0-1.9,1.38,2.54,2.54,0,0,0-.09.92v6.08H22.1s.05-10.3,0-11.24H26V23c.23-.77,1.49-1.87,3.5-1.87,2.49,0,4.45,1.62,4.45,5.1Z"/>
</svg>