<svg id="Layer_1" data-name="Layer 1" xmlns="http://www.w3.org/2000/svg" viewBox="0 0 50 50">
    <defs>
        <style>.cls-1{fill:#fff;}</style>
    </defs>
    <title>Social_media_assettwitter</title>
    <path class="cls-1"
          d="M25,45.5A20.5,20.5,0,1,1,45.5,25,20.52,20.52,0,0,1,25,45.5Zm0-40A19.5,19.5,0,1,0,44.5,25,19.52,19.52,0,0,0,25,5.5Z"/>
    <path class="cls-1"
          d="M34,20.39a7.4,7.4,0,0,1-2.12.58,3.69,3.69,0,0,0,1.62-2,7.37,7.37,0,0,1-2.35.89,3.69,3.69,0,0,0-6.39,2.53,3.64,3.64,0,0,0,.1.84,10.49,10.49,0,0,1-7.61-3.86,3.7,3.7,0,0,0,1.14,4.93,3.7,3.7,0,0,1-1.67-.46v0a3.69,3.69,0,0,0,3,3.62,3.6,3.6,0,0,1-1,.13,3.66,3.66,0,0,1-.69-.07,3.69,3.69,0,0,0,3.45,2.56A7.47,7.47,0,0,1,16,31.63a10.5,10.5,0,0,0,16.17-8.85c0-.16,0-.32,0-.48A7.48,7.48,0,0,0,34,20.39"/>
</svg>