<svg id="Layer_1" data-name="Layer 1" xmlns="http://www.w3.org/2000/svg" viewBox="0 0 1280 300"><defs><style>.cls-1{font-size:21px;font-family:Raleway-Medium, Raleway;}.cls-2{letter-spacing:0em;}.cls-3{letter-spacing:-0.03em;}.cls-4{letter-spacing:-0.01em;}.cls-5{letter-spacing:-0.02em;}.cls-6{letter-spacing:0em;}.cls-7{letter-spacing:-0.01em;}.cls-8{letter-spacing:-0.01em;}.cls-11,.cls-15,.cls-51,.cls-52,.cls-53,.cls-9{fill:none;}.cls-15,.cls-51,.cls-9{stroke:#32386d;}.cls-11,.cls-15,.cls-9{stroke-linejoin:round;}.cls-53,.cls-9{stroke-width:2px;}.cls-10,.cls-12,.cls-16,.cls-44{fill:#32386d;}.cls-11{stroke:#fff;}.cls-12{font-size:12px;}.cls-12,.cls-16,.cls-44{font-family:Raleway-SemiBold, Raleway;font-weight:700;}.cls-13{letter-spacing:0em;}.cls-14{letter-spacing:-0.03em;}.cls-16,.cls-44{font-size:10.2px;}.cls-17{letter-spacing:-0.01em;}.cls-18{letter-spacing:0em;}.cls-19{letter-spacing:-0.01em;}.cls-20{letter-spacing:-0.02em;}.cls-21{letter-spacing:-0.01em;}.cls-22{letter-spacing:-0.03em;}.cls-23{letter-spacing:-0.03em;}.cls-24{letter-spacing:-0.02em;}.cls-25{letter-spacing:0em;}.cls-26{letter-spacing:0em;}.cls-27{letter-spacing:-0.02em;}.cls-28{letter-spacing:-0.03em;}.cls-29{letter-spacing:0em;}.cls-30{letter-spacing:-0.01em;}.cls-31{letter-spacing:-0.02em;}.cls-32{letter-spacing:0em;}.cls-33{letter-spacing:0em;}.cls-34{letter-spacing:-0.03em;}.cls-35{letter-spacing:0em;}.cls-36{letter-spacing:-0.01em;}.cls-37{letter-spacing:-0.01em;}.cls-38{letter-spacing:-0.03em;}.cls-39{letter-spacing:0em;}.cls-40{letter-spacing:-0.02em;}.cls-41{letter-spacing:-0.01em;}.cls-42{letter-spacing:-0.02em;}.cls-43{letter-spacing:-0.01em;}.cls-44{letter-spacing:-0.02em;}.cls-45{letter-spacing:-0.06em;}.cls-46{letter-spacing:-0.03em;}.cls-47{letter-spacing:0em;}.cls-48{letter-spacing:-0.01em;}.cls-49{letter-spacing:-0.02em;}.cls-50{letter-spacing:0em;}.cls-51,.cls-52,.cls-53{stroke-miterlimit:10;}.cls-51,.cls-52{stroke-width:3px;}.cls-52,.cls-53{stroke:#383a63;}</style></defs><title>Slider_image2</title><text class="cls-1" transform="translate(89.15 235.48)"><tspan class="cls-2">S</tspan><tspan x="12.83" y="0">aas</tspan><tspan class="cls-3" x="46.55" y="0"> </tspan><tspan x="51.18" y="0">API</tspan></text><text class="cls-1" transform="translate(988.28 245.48)"><tspan class="cls-2">C</tspan><tspan x="14.29" y="0">u</tspan><tspan class="cls-2" x="26.95" y="0">s</tspan><tspan class="cls-4" x="37.25" y="0">t</tspan><tspan x="44.33" y="0">ome</tspan><tspan class="cls-5" x="88.6" y="0">r</tspan><tspan x="95.76" y="0" xml:space="preserve"> I</tspan><tspan class="cls-6" x="106.49" y="0">n</tspan><tspan x="118.73" y="0">teg</tspan><tspan class="cls-7" x="151.45" y="0">r</tspan><tspan class="cls-8" x="158.86" y="0">a</tspan><tspan x="170.39" y="0">tions</tspan></text><circle class="cls-9" cx="1151.5" cy="96.44" r="36"/><circle class="cls-9" cx="1070.5" cy="141.52" r="36"/><circle class="cls-9" cx="1151.5" cy="186.52" r="36"/><path class="cls-10" d="M1142.12,105.21a1.62,1.62,0,0,0,1.62,1.62h1.62v5.65a2.42,2.42,0,0,0,4.85,0v-5.65h3.23v5.65a2.42,2.42,0,0,0,4.85,0v-5.65h1.62a1.62,1.62,0,0,0,1.62-1.62V89.06h-19.38Zm-4-16.15a2.42,2.42,0,0,0-2.42,2.42v11.31a2.42,2.42,0,0,0,4.85,0V91.48A2.42,2.42,0,0,0,1138.08,89.06Zm27.46,0a2.42,2.42,0,0,0-2.42,2.42v11.31a2.42,2.42,0,1,0,4.85,0V91.48A2.42,2.42,0,0,0,1165.54,89.06Zm-8-9.43,2.1-2.1a.81.81,0,1,0-1.15-1.15l-2.39,2.39a9.43,9.43,0,0,0-4.26-1,9.57,9.57,0,0,0-4.3,1l-2.41-2.39a.81.81,0,1,0-1.15,1.15l2.12,2.12a9.67,9.67,0,0,0-4,7.8h19.38A9.64,9.64,0,0,0,1157.51,79.62Zm-8.93,4.59H1147V82.59h1.62Zm8.08,0H1155V82.59h1.62Z"/><path class="cls-10" d="M1082.76,149.67a18.57,18.57,0,0,1-1.84,3.3,16.77,16.77,0,0,1-2.37,2.86,4.59,4.59,0,0,1-3,1.34,7.62,7.62,0,0,1-2.81-.67,8.06,8.06,0,0,0-3-.67,8.33,8.33,0,0,0-3.11.67,8.36,8.36,0,0,1-2.69.71,4.32,4.32,0,0,1-3.11-1.37,17.61,17.61,0,0,1-2.47-3,20.47,20.47,0,0,1-2.62-5.2,19,19,0,0,1-1.1-6.19,11.31,11.31,0,0,1,1.49-5.92,8.71,8.71,0,0,1,3.11-3.15,8.37,8.37,0,0,1,4.21-1.19,9.9,9.9,0,0,1,3.25.76,10.46,10.46,0,0,0,2.58.76,15.44,15.44,0,0,0,2.86-.89,9.46,9.46,0,0,1,3.89-.69,8.26,8.26,0,0,1,6.47,3.41,7.47,7.47,0,0,0-1.45,12,7.78,7.78,0,0,0,2.37,1.55q-.28.83-.6,1.58Zm-6.59-25.93a7.29,7.29,0,0,1-1.87,4.78,6.36,6.36,0,0,1-5.29,2.61,5.32,5.32,0,0,1,0-.65,7.49,7.49,0,0,1,2-4.83,7.63,7.63,0,0,1,2.41-1.81,7.2,7.2,0,0,1,2.76-.78,6.2,6.2,0,0,1,0,.68Z"/><circle class="cls-10" cx="1151.5" cy="186.52" r="15.69"/><path class="cls-11" d="M1163.35,178.34a17.33,17.33,0,0,1-24.39.41"/><path class="cls-11" d="M1140.2,196.16a17.32,17.32,0,0,1,21.9.32"/><path class="cls-11" d="M1146.07,186.77c0,5.92,2.06,11.17,5.23,14.5,3.17-3.33,5.23-8.58,5.23-14.5s-2.06-11.17-5.23-14.5C1148.12,175.6,1146.07,180.84,1146.07,186.77Z"/><line class="cls-11" x1="1136.31" y1="187.65" x2="1166.27" y2="187.65"/><rect class="cls-9" x="294.41" y="124.72" width="130.96" height="33.96"/><text class="cls-12" transform="translate(330.24 146.39)">API SPE<tspan class="cls-6" x="43.85" y="0">C</tspan><tspan x="51.94" y="0">S</tspan></text><rect class="cls-9" x="544.76" y="124.72" width="130.96" height="33.96"/><text class="cls-12" transform="translate(580.06 146.39)">LIB<tspan class="cls-13" x="18.45" y="0">R</tspan><tspan x="26.42" y="0">ARI</tspan><tspan class="cls-4" x="45.82" y="0">E</tspan><tspan x="52.99" y="0">S</tspan></text><rect class="cls-9" x="783.21" y="124.72" width="130.96" height="33.96"/><text class="cls-12" transform="translate(803.57 146.39)">USER <tspan class="cls-8" x="34.61" y="0">C</tspan><tspan x="42.64" y="0">ONTEX</tspan><tspan class="cls-14" x="83.14" y="0">T</tspan></text><rect class="cls-15" x="313.08" y="32.79" width="94.73" height="35.7"/><text class="cls-16" transform="translate(339.27 54.03)"><tspan class="cls-17">P</tspan><tspan class="cls-18" x="6.2" y="0">os</tspan><tspan x="17.38" y="0">tman</tspan></text><rect class="cls-15" x="563.43" y="32.79" width="94.73" height="35.7"/><text class="cls-16" transform="translate(586.41 54.03)"><tspan class="cls-19">J</tspan><tspan class="cls-20" x="4.92" y="0">a</tspan><tspan class="cls-21" x="10.49" y="0">v</tspan><tspan x="15.85" y="0">ascript</tspan></text><rect class="cls-15" x="801.88" y="32.79" width="94.73" height="35.7"/><text class="cls-16" transform="translate(824.19 54.03)">Web<tspan class="cls-22" x="23.17" y="0"> </tspan><tspan x="25.35" y="0">Apps</tspan></text><rect class="cls-15" x="259.01" y="78.75" width="94.73" height="35.7"/><text class="cls-16" transform="translate(280.67 100)">Readme.io</text><rect class="cls-15" x="364.38" y="78.75" width="94.73" height="35.7"/><text class="cls-16" transform="translate(399.61 100)">PD<tspan class="cls-23" x="13.65" y="0">F</tspan><tspan x="19.17" y="0">s</tspan></text><rect class="cls-15" x="509.36" y="78.75" width="94.73" height="35.7"/><text class="cls-16" transform="translate(537.63 100)">And<tspan class="cls-24" x="19.47" y="0">r</tspan><tspan class="cls-25" x="23.1" y="0">oid</tspan></text><rect class="cls-15" x="614.73" y="78.75" width="94.73" height="35.7"/><text class="cls-16" transform="translate(653.98 100)"><tspan class="cls-26">iO</tspan><tspan x="9.98" y="0">S</tspan></text><rect class="cls-15" x="747.81" y="78.75" width="94.73" height="35.7"/><text class="cls-16" transform="translate(762.61 100)">And<tspan class="cls-27" x="19.47" y="0">r</tspan><tspan x="23.1" y="0">oid</tspan><tspan class="cls-28" x="38.19" y="0"> </tspan><tspan class="cls-29" x="40.37" y="0">Apps</tspan></text><rect class="cls-15" x="853.18" y="78.75" width="94.73" height="35.7"/><text class="cls-16" transform="translate(892.43 100)"><tspan class="cls-26">iO</tspan><tspan x="9.98" y="0">S</tspan></text><rect class="cls-15" x="313.08" y="214.91" width="94.73" height="35.7"/><text class="cls-16" transform="translate(334.08 230.07)"><tspan class="cls-30">D</tspan><tspan x="7.25" y="0">ashboa</tspan><tspan class="cls-31" x="42.49" y="0">r</tspan><tspan x="46.13" y="0">d</tspan><tspan x="-1.41" y="12.24">Crede</tspan><tspan class="cls-32" x="27.96" y="12.24">n</tspan><tspan class="cls-33" x="34" y="12.24">tials</tspan></text><rect class="cls-15" x="563.43" y="214.91" width="94.73" height="35.7"/><text class="cls-16" transform="translate(600.82 235.71)">PH<tspan class="cls-34" x="13.91" y="0">P</tspan></text><rect class="cls-15" x="801.88" y="214.91" width="94.73" height="35.7"/><text class="cls-16" transform="translate(811.19 230.07)">I<tspan class="cls-35" x="2.77" y="0">n</tspan><tspan x="8.81" y="0">teg</tspan><tspan class="cls-36" x="24.98" y="0">r</tspan><tspan class="cls-37" x="28.7" y="0">a</tspan><tspan x="34.41" y="0">tion</tspan><tspan class="cls-38" x="52.73" y="0"> </tspan><tspan class="cls-29" x="54.95" y="0">Te</tspan><tspan class="cls-39" x="67.32" y="0">s</tspan><tspan x="72.4" y="0">t</tspan><tspan x="23.58" y="12.24">Cases</tspan></text><rect class="cls-15" x="259.01" y="168.94" width="94.73" height="35.7"/><text class="cls-16" transform="translate(285.06 190.19)"><tspan class="cls-40">S</tspan><tspan class="cls-41" x="6.04" y="0">w</tspan><tspan x="14.4" y="0">agge</tspan><tspan class="cls-42" x="39.04" y="0">r</tspan></text><rect class="cls-15" x="364.38" y="168.94" width="94.73" height="35.7"/><text class="cls-16" transform="translate(368.06 190.19)">Repe<tspan class="cls-43" x="25.34" y="0">a</tspan><tspan x="31.04" y="0">t </tspan><tspan class="cls-41" x="37.25" y="0">U</tspan><tspan x="44.75" y="0">se Cases</tspan></text><rect class="cls-15" x="509.36" y="168.94" width="94.73" height="35.7"/><text class="cls-44" transform="translate(544.68 190.19)">J<tspan class="cls-45" x="4.85" y="0">AV</tspan><tspan class="cls-46" x="17.5" y="0">A</tspan></text><rect class="cls-15" x="614.73" y="168.94" width="94.73" height="35.7"/><text class="cls-16" transform="translate(651 190.19)">.NE<tspan class="cls-34" x="16.17" y="0">T</tspan></text><rect class="cls-15" x="747.81" y="168.94" width="94.73" height="35.7"/><text class="cls-16" transform="translate(760.97 190.19)"><tspan class="cls-47">B</tspan><tspan x="6.86" y="0">ui</tspan><tspan class="cls-26" x="15.54" y="0">l</tspan><tspan x="18.55" y="0">d </tspan><tspan class="cls-20" x="27.57" y="0">S</tspan><tspan class="cls-48" x="33.62" y="0">y</tspan><tspan class="cls-39" x="39.03" y="0">s</tspan><tspan x="44.11" y="0">tems</tspan></text><rect class="cls-15" x="853.18" y="168.94" width="94.73" height="35.7"/><text class="cls-16" transform="translate(861.02 190.19)">.Manua<tspan class="cls-49" x="34.89" y="0">l</tspan><tspan class="cls-29" x="37.68" y="0"> </tspan><tspan class="cls-50" x="40.17" y="0">S</tspan><tspan class="cls-29" x="46.39" y="0">upport</tspan></text><rect class="cls-9" x="65.5" y="70.44" width="134" height="134" rx="12" ry="12"/><line class="cls-51" x1="200" y1="141.94" x2="287.54" y2="141.94"/><polygon class="cls-10" points="286.23 146.43 294 141.94 286.23 137.45 286.23 146.43"/><line class="cls-51" x1="427" y1="141.94" x2="538.54" y2="141.94"/><polygon class="cls-10" points="537.23 146.43 545 141.94 537.23 137.45 537.23 146.43"/><line class="cls-51" x1="914.5" y1="141.94" x2="1026.04" y2="141.94"/><polygon class="cls-10" points="1024.73 146.43 1032.5 141.94 1024.73 137.45 1024.73 146.43"/><line class="cls-51" x1="987" y1="92.94" x2="1109.54" y2="92.94"/><polygon class="cls-10" points="1108.23 97.43 1116 92.94 1108.23 88.45 1108.23 97.43"/><line class="cls-51" x1="987" y1="188.94" x2="1107.54" y2="188.94"/><polygon class="cls-10" points="1106.23 193.43 1114 188.94 1106.23 184.45 1106.23 193.43"/><line class="cls-51" x1="678" y1="141.94" x2="774.54" y2="141.94"/><polygon class="cls-10" points="773.23 146.43 781 141.94 773.23 137.45 773.23 146.43"/><line class="cls-51" x1="987" y1="91.44" x2="987" y2="190.44"/><circle class="cls-52" cx="109.12" cy="113.37" r="13.74"/><circle class="cls-52" cx="108.9" cy="164.79" r="8.42"/><circle class="cls-52" cx="161.2" cy="113.37" r="8.42"/><circle class="cls-52" cx="146.13" cy="149.72" r="8.42"/><line class="cls-53" x1="122.64" y1="112.93" x2="152.78" y2="112.93"/><line class="cls-53" x1="119.09" y1="122.68" x2="140.37" y2="143.96"/><line class="cls-53" x1="109.34" y1="126.67" x2="109.34" y2="156.81"/></svg>